<?xml version="1.0" encoding="UTF-8"?>
<!-- Generated by Pixelmator Pro 3.7.1 -->
<svg width="511" height="241" viewBox="0 0 511 241" xmlns="http://www.w3.org/2000/svg">
    <path id="path1" fill="#000000" fill-rule="evenodd" stroke="none" d="M 480.834961 0.985962 L 466.200989 12.368042 C 477.583008 23.208008 487.067993 35.403015 494.927002 48.953003 L 510.916016 37.299988 C 503.869995 24.833984 493.843018 12.639038 480.834961 0.985962 Z M 451.567017 12.910034 L 436.661987 24.291992 C 448.315002 35.403015 458.071045 47.598022 465.658997 60.877014 L 481.377014 49.765991 C 473.789001 36.216003 463.761963 23.75 451.567017 12.910034 Z M 323.113037 14.807007 C 322.571045 39.197021 322.028992 62.502991 321.757996 85.266968 L 259.157013 94.210022 L 264.035004 121.85199 L 321.487 113.450989 C 320.945007 140.550995 320.945007 166.024994 320.945007 190.414978 C 320.945007 209.927002 327.448975 222.934998 340.457031 229.981018 C 351.296997 235.401001 371.079956 238.382019 400.077026 238.382019 C 423.924988 238.382019 452.109009 236.755981 485.171021 233.774994 L 485.171021 205.591003 C 456.987 208.843018 428.802979 210.73999 400.077026 210.73999 C 382.19104 210.73999 369.995972 209.38501 363.492004 206.945984 C 355.362 203.694 351.296997 197.731995 351.296997 189.059998 C 351.296997 164.127991 351.296997 137.299011 351.838989 109.11499 L 450.483032 94.481018 C 434.494019 115.619019 414.710999 135.944 391.405029 154.914001 L 411.458984 176.593994 C 445.875977 148.951996 474.059998 115.890015 496.010986 77.679016 L 476.77002 63.587036 L 352.109985 80.93103 C 352.380981 59.792969 352.922974 37.571045 353.464966 14.807007 L 323.113037 14.807007 Z M 9.837006 61.419006 L 9.837006 89.332031 L 88.968994 89.332031 C 85.988007 111.825012 81.652008 129.710999 76.231995 142.98999 C 69.457001 158.166016 59.158997 172.528992 45.338013 185.807983 C 33.143005 197.190002 18.238007 208.029999 0.352005 218.057007 L 20.13501 240.278992 C 50.757996 223.205994 74.063995 203.423004 89.781982 180.658997 C 103.332001 160.333984 112.546021 135.673004 117.424011 106.405029 C 117.966003 101.255981 118.778992 95.565002 119.59198 89.332031 L 179.753998 89.332031 L 177.044006 157.623993 C 176.231018 174.968018 173.791992 188.247009 169.455994 197.190002 C 165.119995 206.403992 158.615997 211.281982 150.214996 211.281982 C 139.375 211.281982 127.179993 209.927002 113.359009 207.21701 L 113.359009 235.130005 C 125.825012 237.298004 138.291016 238.382019 150.485992 238.382019 C 170.811005 238.382019 185.174011 231.877991 193.575012 218.869995 C 200.621002 207.759003 204.686005 188.789001 205.77002 161.960022 L 209.835022 61.419006 L 121.76001 61.419006 C 122.302002 47.598022 122.843994 31.880005 123.11499 14.265015 L 93.304993 14.265015 C 93.033997 31.338013 92.492004 47.05603 91.679016 61.419006 L 9.837006 61.419006 Z"/>
</svg>
